<svg version="1.2" xmlns="http://www.w3.org/2000/svg" viewBox="0 0 800 800" width="800" height="800">
	<title>vector</title>
	<style>
		.s0 { fill: #6b728e } 
	</style>
	<g id="Layer 1">
		<path id="&lt;Path&gt;" class="s0" d="m415.4 73c49.8 0 101.9 17 137.9 38.7q5 3 9.9 6.1c75.4 48.8 107.2 103.2 120.8 152 4.4 15.7 6.6 32.6 6.6 71.1-0.3 124.6 0 249.3 0 373.9 0 10.9-13.4 16.3-21.3 8.6l-78.9-77.5c-5.9-5.8-9.2-13.7-9.2-21.8q-0.1-19.3-0.1-38.6c0-6.3-2.4-12.4-6.6-17.1l-243.1-269.5c-4.8-5.3 2.2-12.9 7.9-8.7l231.1 171.8c4.5 3.3 10.9 0.1 10.9-5.5q0.3-45.1 0.8-89.8c0.4-8.7-1-93.6-73.3-148.5-30-22.8-67.7-35.1-105.4-35.4-27.9-0.3-55.8 0-83.7 0q-39.6 0-79.3 0-5.4 0-10.9 0c-6.8 0-11 3.8-11.1 10.5-0.6 59.8-4.2 124 1.3 183 9.8 104.5 74.6 160.1 196.4 157.8l44.8-1.8c9-0.4 17.7 3 24 9.3q36.6 36.3 73.2 72.7c7.7 7.7-0.1 22.7-11.1 22.7q0.4 0 0.8 0.1c-22.1 1.3-44.5 0.3-66.6 0.2-42.4-0.3-85.1 0.2-127.4-2.8-35-2.5-68.4-15.1-98.8-32.1-19-10.7-37.1-23-54.3-36.3-73.7-56.6-92.5-122-91.2-165.7 0-0.6-0.1-313.8-0.1-314 0-7 6.9-13.4 13.7-13.4"/>
	</g>
</svg>